**ABCDEFGHIJKLMNOPQRSTUVWXYZabcdefghijklmnopqrstuvwxyz**************************
**PARASOLID !"#$%&'()*+,-./:;<=>?@[\]^_`{|}~0123456789**************************
**PART1;
MC=AMD64;
MC_MODEL=AMD64 Family 25 Model 80 Stepping 0, AuthenticAMD;
MC_ID=unknown;
OS=Windows_NT;
OS_RELEASE=unknown;
FRU=Parasolid Version 32.1, build 255,  1- 1-2021;
APPL=SOLIDWORKS 2021-2021085;
SITE=;
USER=unknown;
FORMAT=text;
GUISE=transmit;
KEY=Bruto-Antenna Sheet Metal Structure-1;
FILE=Bruto-Antenna Sheet Metal Structure-1.x_t;
DATE=Mon Sep 26 15:33:03 2022;
**PART2;
SCH=SCH_3201255_32001;
USFLD_SIZE=0;
**PART3;
**END_OF_HEADER*****************************************************************
T51 : TRANSMIT FILE created by modeller version 320125523 SCH_3201255_32001_1300
6229 0 12 34 CCCCCCI4 mesh1006 0 I8 polyline1008 0 CCCCCCCDI5 owner1040 0 CCCCCC
I13 boundary_mesh1006 0 I17 boundary_polyline1008 0 CCCA16 index_map_offset0 0 1
 dA9 index_map82 0 A17 node_id_index_map82 0 A20 schema_embedding_map82 0 A5 chi
ld12 0 A14 lowest_node_id0 0 1 dA16 mesh_offset_data206 0 Z1 3276 2 3 0 0 0 0 0
 0 1e3 1e-8 0 4 0 1 0 1 1 5 6 7 8 0 0 9 10 11 0 0 0 0 0 0 0 81 255 2 2 3252 12 1
 13 0 0 0 0 14 70 11 CI9 list_type0 0 1 uI10 notransmit0 0 1 lCCCDCCDI12 finger_
index0 0 1 dI12 finger_block1012 0 CZ3 0 4 T1 0 0 10 20 1 15 15 13 255 5 99 0 1
 0 16 0 0 17 0 51 255 6 94 0 16 18 0 0 +-.125 765404249467096e-32 -75e-5 0 0 1 .
145 1 0 0 31 255 7 456 0 19 20 0 0 +.105 -.135 -75e-5 0 0 1 1 0 0 .002 29 255 8
 75 0 21 22 0 -.125 .145 0 19 8 CCCCCCCA5 owner12 0 Z9 33 0 1 17 0 23 V0 16 255
 10 79 0 ?24 0 25 26 0 0 1 18 255 11 30 0 27 0 28 29 ?1 17 255 27 0 30 31 32 11
 24 10 0 33 -18 28 27 0 34 11 35 36 ?1 29 29 32 0 11 36 37 -.125 .145 -75e-5 29
 36 29 0 28 38 29 .125 .145 -75e-5 29 37 78 0 39 29 40 -.125 -.145 0 18 39 69 0
 41 42 0 37 ?1 29 40 77 0 42 37 22 .125 -.145 0 18 42 68 0 43 44 39 40 ?1 29 22
 76 0 44 40 8 .125 .145 0 18 44 67 0 45 21 42 22 ?1 17 45 0 46 47 48 44 34 25 0
 49 +18 21 66 0 24 50 44 8 ?1 17 24 0 51 52 53 21 27 10 0 32 +18 50 21 0 54 35 2
1 55 ?1 17 54 0 56 57 58 50 41 59 0 60 -18 35 24 0 61 28 50 38 ?1 29 55 23 0 50
 0 38 -.125 -.145 -75e-5 29 38 26 0 35 55 36 .125 -.145 -75e-5 17 61 0 46 48 47
 35 43 62 0 63 -15 255 46 85 0 47 64 0 17 48 0 46 45 61 28 63 65 0 66 +17 47 0 4
6 61 45 42 49 67 0 68 -17 43 0 56 58 57 42 61 62 0 47 +16 62 81 0 ?43 25 59 69 0
 0 1 17 63 0 70 60 66 35 48 65 0 57 -15 70 4 0 33 71 0 17 60 0 70 33 63 50 57 72
 0 31 -17 66 0 70 63 33 28 53 73 0 0 -16 65 13 0 ?48 73 72 74 0 0 1 17 57 0 56 4
3 54 35 60 72 0 0 +15 56 87 0 58 75 0 16 72 9 0 ?57 65 76 77 0 0 1 16 76 5 0 ?31
 72 78 79 0 0 1 30 255 77 11 0 72 79 74 0 +-.125 -.145 -75e-5 1 0 0 31 79 7 0 76
 80 77 0 +-.125 765404249467096e-32 -75e-5 0 0 1 1 0 0 .145 31 74 15 0 65 77 81
 0 +.125 765404249467096e-32 -75e-5 0 0 1 1 0 0 .145 30 81 19 0 73 74 82 0 +-.12
5 .145 -75e-5 -1 0 0 16 73 17 0 ?53 59 65 81 0 0 1 31 82 74 0 83 81 84 0 +-.125
 765404249467096e-32 0 0 0 1 1 0 0 .145 16 83 62 0 ?85 86 87 82 0 0 1 30 84 73 0
 86 82 88 0 +-.125 -.145 0 1 0 0 16 86 58 0 ?68 67 83 84 0 0 1 31 88 72 0 67 84
 89 0 +.125 765404249467096e-32 0 0 0 1 1 0 0 .145 16 67 54 0 ?49 78 86 88 0 0 1
 30 89 71 0 78 88 26 0 +-.125 .145 0 -1 0 0 16 78 50 0 ?90 76 67 89 0 0 1 30 26
 95 0 10 89 91 0 +-.125 .145 -75e-5 0 0 1 30 91 96 0 25 26 69 0 +.125 .145 -75e-
5 0 0 1 16 25 80 0 ?45 10 62 91 0 0 1 30 69 97 0 62 91 20 0 +.125 -.145 -75e-5 0
 0 1 30 20 98 0 59 69 7 0 +-.125 -.145 -75e-5 0 0 1 16 59 82 0 ?41 62 73 20 0 0
 1 17 41 0 30 32 31 39 54 59 0 58 +15 30 89 0 32 16 0 17 32 0 30 27 41 21 85 83
 0 90 -17 31 0 30 41 27 50 33 76 0 0 +17 58 0 56 54 43 39 68 86 0 85 -17 68 0 92
 49 85 42 58 86 0 0 +17 85 0 92 68 90 39 32 83 0 0 +15 92 49 0 85 93 0 17 90 0 9
2 85 49 21 52 78 0 0 +17 49 0 92 90 68 44 47 67 0 52 +17 52 0 51 34 24 44 90 78
 0 0 -15 51 83 0 52 94 0 17 34 0 51 53 52 28 45 25 0 48 -17 53 0 51 24 34 11 66
 73 0 0 +14 255 94 84 95 ?64 16 51 5 96 +0 0 64 16 23 81 3 95 3254 97 94 98 0 0
 99 100 0 0 14 64 86 99 ?75 94 46 5 101 +0 0 75 94 23 14 16 90 102 ?94 0 30 5 6
 +0 0 94 0 23 50 255 96 91 0 94 103 101 0 +-.125 .145 -75e-5 0 1 0 0 0 1 13 23 3
4 0 0 0 0 0 0 9 16 50 103 70 0 93 104 96 0 +-.125 765404249467096e-32 0 0 0 1 1
 0 0 51 101 92 0 64 96 18 0 +.125 765404249467096e-32 -75e-5 0 0 1 .145 1 0 0 50
 18 93 0 75 101 6 0 +-.125 -.145 -75e-5 0 -1 0 0 0 -1 14 75 88 105 ?71 64 56 5 1
8 +0 0 71 64 23 81 3 105 3260 97 75 106 0 102 107 108 0 0 14 71 1 107 ?93 75 109
 5 104 -0 0 93 75 23 81 3 107 3262 97 71 110 0 105 111 112 0 0 14 93 48 111 ?113
 71 114 5 103 +0 0 113 71 23 15 109 771 0 115 71 116 50 104 3 0 71 117 103 0 +-.
125 765404249467096e-32 -75e-5 0 0 1 1 0 0 51 117 144 0 113 118 104 0 +-.125 765
404249467096e-32 -75e-5 0 0 1 .1 1 0 0 14 113 131 119 ?120 93 121 5 117 -0 0 120
 93 23 51 118 182 0 120 122 117 0 +.125 765404249467096e-32 -75e-5 0 0 1 .1 1 0
 0 14 120 169 123 ?124 113 125 5 118 -0 0 124 113 23 51 122 313 0 124 126 118 0
 +-.105 -.135 0 0 0 1 .002 1 0 0 14 124 290 127 ?128 120 129 5 122 -0 0 128 120
 23 51 126 380 0 128 130 122 0 +-.035 -.135 0 0 0 1 .002 1 0 0 14 128 357 131 ?1
32 124 133 5 126 -0 0 132 124 23 51 130 447 0 132 134 126 0 +.035 -.135 0 0 0 1
 .002 1 0 0 14 132 424 135 ?136 128 137 5 130 -0 0 136 128 23 51 134 515 0 136 1
38 130 0 +.105 -.135 0 0 0 1 .002 1 0 0 14 136 492 139 ?140 132 141 5 134 -0 0 1
40 132 23 51 138 581 0 140 142 134 0 +.105 .135 0 0 0 1 .002 1 0 0 14 140 558 14
3 ?144 136 145 5 138 -0 0 144 136 23 51 142 648 0 144 146 138 0 +-.035 .135 0 0
 0 1 .002 1 0 0 14 144 625 147 ?148 140 149 5 142 -0 0 148 140 23 51 146 715 0 1
48 150 142 0 +.035 .135 0 0 0 1 .002 1 0 0 14 148 692 151 ?152 144 153 5 146 -0
 0 152 144 23 51 150 814 0 152 0 146 0 +-.105 .135 0 0 0 1 .002 1 0 0 14 152 791
 154 ?0 148 155 5 150 -0 0 0 148 23 81 1 154 3276 156 152 157 0 151 0 158 15 155
 794 0 159 152 160 17 159 0 155 159 159 0 161 162 0 0 +15 160 795 0 163 152 0 17
 163 0 160 163 163 0 115 164 0 0 -17 115 0 109 115 115 0 163 164 0 0 +16 164 787
 0 ?115 165 162 166 0 0 1 16 165 689 0 ?167 168 164 169 0 0 1 16 162 788 0 ?159
 164 0 170 0 0 1 31 166 815 0 164 170 169 0 +-.105 .135 -75e-5 0 0 1 1 0 0 .002
 31 170 817 0 162 0 166 0 +-.105 .135 1301042606982604e-33 0 0 1 1 0 0 .002 31 1
69 718 0 165 166 171 0 +.035 .135 1301042606982604e-33 0 0 1 1 0 0 .002 31 171 7
16 0 168 169 172 0 +.035 .135 -75e-5 0 0 1 1 0 0 .002 16 168 688 0 ?173 174 165
 171 0 0 1 31 172 651 0 174 171 175 0 +-.035 .135 1301042606982604e-33 0 0 1 1 0
 0 .002 16 174 622 0 ?176 177 168 172 0 0 1 31 175 649 0 177 172 178 0 +-.035 .1
35 -75e-5 0 0 1 1 0 0 .002 16 177 621 0 ?179 180 174 175 0 0 1 31 178 584 0 180
 175 181 0 +.105 .135 1301042606982604e-33 0 0 1 1 0 0 .002 16 180 555 0 ?182 18
3 177 178 0 0 1 31 181 582 0 183 178 184 0 +.105 .135 -75e-5 0 0 1 1 0 0 .002 16
 183 554 0 ?185 186 180 181 0 0 1 31 184 517 0 186 181 187 0 +.105 -.135 1301042
606982604e-33 0 0 1 1 0 0 .002 16 186 489 0 ?188 19 183 184 0 0 1 31 187 450 0 1
89 184 190 0 +.035 -.135 1301042606982604e-33 0 0 1 1 0 0 .002 16 189 421 0 ?191
 192 19 187 0 0 1 31 190 448 0 192 187 193 0 +.035 -.135 -75e-5 0 0 1 1 0 0 .002
 16 192 420 0 ?194 195 189 190 0 0 1 31 193 383 0 195 190 196 0 +-.035 -.135 130
1042606982604e-33 0 0 1 1 0 0 .002 16 195 354 0 ?197 198 192 193 0 0 1 31 196 38
1 0 198 193 199 0 +-.035 -.135 -75e-5 0 0 1 1 0 0 .002 16 198 353 0 ?200 201 195
 196 0 0 1 31 199 316 0 201 196 202 0 +-.105 -.135 1301042606982604e-33 0 0 1 1
 0 0 .002 16 201 287 0 ?203 204 198 199 0 0 1 31 202 314 0 204 199 205 0 +-.105
 -.135 -75e-5 0 0 1 1 0 0 .002 16 204 286 0 ?206 207 201 202 0 0 1 31 205 186 0
 208 202 209 0 +.125 765404249467096e-32 -75e-5 0 0 1 1 0 0 .1 16 208 163 0 ?210
 211 207 205 0 0 1 31 209 185 0 207 205 212 0 +.125 765404249467096e-32 0 0 0 1
 1 0 0 .1 16 207 166 0 ?213 208 204 209 0 0 1 31 212 148 0 87 209 80 0 +-.125 76
5404249467096e-32 -75e-5 0 0 1 1 0 0 .1 16 87 125 0 ?214 83 211 212 0 0 1 31 80
 147 0 211 212 79 0 +-.125 765404249467096e-32 0 0 0 1 1 0 0 .1 16 211 128 0 ?21
5 87 208 80 0 0 1 17 215 0 216 215 215 0 217 211 0 0 +15 216 135 0 215 113 0 17
 217 0 218 217 217 0 215 211 0 0 -15 218 114 0 217 93 92 17 214 0 219 214 214 0
 220 87 0 0 +15 219 119 0 214 71 70 17 220 0 121 220 220 0 214 87 0 0 -15 121 13
4 0 220 113 216 17 213 0 221 213 213 0 222 207 0 0 +15 221 173 0 213 120 0 17 22
2 0 223 222 222 0 213 207 0 0 -15 223 152 0 222 93 218 17 210 0 224 210 210 0 22
5 208 0 0 +15 224 157 0 210 71 219 17 225 0 125 225 225 0 210 208 0 0 -15 125 17
2 0 225 120 221 17 206 0 226 206 206 0 227 204 0 0 +15 226 270 0 206 71 224 17 2
27 0 228 227 227 0 206 204 0 0 -15 228 294 0 227 124 0 17 203 0 129 203 203 0 22
9 201 0 0 +15 129 293 0 203 124 228 17 229 0 230 229 229 0 203 201 0 0 -15 230 2
54 0 229 93 223 17 200 0 231 200 200 0 232 198 0 0 +15 231 337 0 200 71 226 17 2
32 0 233 232 232 0 200 198 0 0 -15 233 361 0 232 128 0 17 197 0 133 197 197 0 23
4 195 0 0 +15 133 360 0 197 128 233 17 234 0 235 234 234 0 197 195 0 0 -15 235 3
21 0 234 93 230 17 194 0 236 194 194 0 237 192 0 0 +15 236 404 0 194 71 231 17 2
37 0 238 237 237 0 194 192 0 0 -15 238 428 0 237 132 0 17 191 0 137 191 191 0 23
9 189 0 0 +16 19 488 0 ?240 189 186 7 0 0 1 17 240 0 241 240 240 0 242 19 0 0 +1
5 241 454 0 240 71 236 17 242 0 243 242 242 0 240 19 0 0 -15 243 496 0 242 136 0
 15 137 427 0 191 132 238 17 239 0 244 239 239 0 191 189 0 0 -15 244 388 0 239 9
3 235 17 188 0 141 188 188 0 245 186 0 0 +15 141 495 0 188 136 243 17 245 0 246
 245 245 0 188 186 0 0 -15 246 472 0 245 93 244 17 185 0 247 185 185 0 248 183 0
 0 +15 247 538 0 185 71 241 17 248 0 249 248 248 0 185 183 0 0 -15 249 562 0 248
 140 0 17 182 0 145 182 182 0 250 180 0 0 +15 145 561 0 182 140 249 17 250 0 251
 250 250 0 182 180 0 0 -15 251 522 0 250 93 246 17 179 0 252 179 179 0 253 177 0
 0 +15 252 605 0 179 71 247 17 253 0 254 253 253 0 179 177 0 0 -15 254 629 0 253
 144 0 17 176 0 149 176 176 0 255 174 0 0 +15 149 628 0 176 144 254 17 255 0 256
 255 255 0 176 174 0 0 -15 256 589 0 255 93 251 17 173 0 116 173 173 0 257 168 0
 0 +15 116 672 0 173 71 252 17 257 0 258 257 257 0 173 168 0 0 -15 258 696 0 257
 148 0 17 167 0 153 167 167 0 259 165 0 0 +15 153 695 0 167 148 258 17 259 0 260
 259 259 0 167 165 0 0 -15 260 656 0 259 93 256 17 161 0 114 161 161 0 159 162 0
 0 -15 114 755 0 161 93 260 80 255 1 156 261 262 9000 1 1 1 1 1 1 1 1 0 FFFFTFTF
FFFFFF1 81 1 157 3210 263 152 0 154 264 0 265 81 1 151 3275 156 148 264 0 147 15
4 266 82 255 1 158 -1727856514 81 1 264 3209 263 148 0 151 267 157 268 81 1 147
 3274 156 144 267 0 143 151 269 82 1 266 -1727987586 81 1 267 3208 263 144 0 147
 270 264 271 81 1 143 3273 156 140 270 0 139 147 272 82 1 269 -1728118658 81 1 2
70 3207 263 140 0 143 273 267 274 81 1 139 3272 156 136 273 0 135 143 275 82 1 2
72 -1728249730 81 1 273 3206 263 136 0 139 276 270 277 81 1 135 3271 156 132 276
 0 131 139 278 82 1 275 -1728380802 81 1 276 3205 263 132 0 135 279 273 280 81 1
 131 3270 156 128 279 0 127 135 281 82 1 278 -1728511874 81 1 279 3204 263 128 0
 131 282 276 283 81 1 127 3269 156 124 282 0 284 131 285 82 1 281 -1728642946 81
 1 282 3203 263 124 0 127 286 279 287 81 1 284 3267 156 120 286 123 288 127 289
 82 1 285 -1728774018 81 1 286 3202 263 120 0 284 290 282 291 81 3 123 3268 97 1
20 284 0 119 0 292 0 0 81 1 288 3265 156 113 290 119 293 284 294 82 1 289 -17289
05090 81 1 290 3201 263 113 0 288 295 286 296 81 3 119 3266 97 113 288 0 111 123
 297 0 0 81 1 293 3263 156 93 295 111 110 288 298 82 1 294 -1729036162 81 1 295
 3200 263 93 0 293 299 290 300 81 3 111 3264 97 93 293 0 107 119 301 0 0 81 1 11
0 3261 156 71 299 107 106 293 302 82 1 298 -1729298306 81 1 299 3199 263 71 0 11
0 303 295 304 81 1 106 3259 156 75 303 105 305 110 306 82 1 302 -1729429378 81 1
 303 3198 263 75 0 106 307 299 308 81 1 305 3257 156 16 309 102 310 106 311 82 1
 306 -1729560450 81 1 309 3195 263 16 0 305 0 312 313 81 3 102 3258 97 16 305 0
 99 105 314 0 0 81 1 310 3255 156 64 307 99 98 305 315 82 1 311 -1729953666 81 1
 307 3197 263 64 0 310 312 303 316 81 3 99 3256 97 64 310 0 95 102 317 0 0 81 1
 98 3253 156 94 312 95 0 310 318 82 1 315 -1730019202 81 1 312 3196 263 94 0 98
 309 307 319 82 1 318 -1730150274 80 1 263 0 320 8001 0 0 0 0 3 5 0 0 0 FFFFTFTF
FFFFFF2 83 255 3 319 1 1 1 79 255 15 320 SDL/TYSA_COLOUR80 3 97 321 322 9000 0 0
 0 0 3 6 0 0 0 FFTTTTTTFFFFTT1 1 1 82 3 317 738924 4 0 79 12 322 GENERIC_PERM83
 3 316 1 1 1 82 3 314 738924 4 0 83 3 313 1 1 1 83 3 308 1 1 1 83 3 304 1 1 1 82
 3 301 738924 3 0 83 3 300 1 1 1 82 3 297 738924 4 0 83 3 296 1 1 1 82 3 292 738
924 4 0 83 3 291 1 1 1 83 3 287 1 1 1 83 3 283 1 1 1 83 3 280 1 1 1 83 3 277 1 1
 1 83 3 274 1 1 1 83 3 271 1 1 1 83 3 268 1 1 1 83 3 265 1 1 1 79 14 262 SWEntUn
changed82 3 112 738924 2 0 82 3 108 738924 4 0 82 3 100 738924 4 0 17 33 0 70 66
 60 11 31 76 0 53 -19 17 100 0 1 0 9 5 S0 74 4 CI16 index_map_offset0 0 1 dCCZ20
 15 10 0 0 323 123 324 325 326 154 327 13 157 2 0 0 0 0 0 0 0 0 0 0 81 2 323 111
 328 1 0 324 0 0 0 329 81 2 324 203 330 1 323 325 0 0 0 331 81 2 325 1146 332 1
 324 326 0 0 0 333 81 2 326 1657 334 1 325 327 0 0 335 0 81 1 327 3052 336 1 326
 13 0 0 337 81 2 13 3072 338 1 327 2 0 0 0 0 80 2 338 339 340 9000 0 0 0 0 3 5 0
 0 0 FFTFFFFFFFFFFF9 1 79 16 340 BODY_RECIPE_200180 1 336 341 342 9000 1 1 1 1 1
 1 1 1 0 FFTFFFFFFFFFFF1 82 1 337 447812 79 10 342 BODY_MATCH80 2 334 343 344 80
04 0 0 0 0 3 5 0 0 0 FFTFFFFFFFFFFF2 3 83 1 335 7870 79 16 344 SDL/TYSA_DENSITY8
0 2 332 345 346 9000 0 0 0 0 3 5 0 0 0 FFTFFFFFFFFFFF9 1 82 1 333 1 79 24 346 BO
DY_IN_LIGHTWEIGHT_PERM80 2 330 347 348 9000 0 0 0 0 3 5 0 0 0 FFTFFFFFFFFFFF9 1
 82 1 331 26 79 30 348 LAST_BODY_MODIFYING_FEATURE_ID80 2 328 349 350 9000 0 0 0
 0 3 5 0 0 0 FFTFFFFFFFFFFT9 1 82 1 329 105 79 19 350 ENT_TIME_STAMP_200180 2 12
 351 352 9000 0 0 0 0 3 5 0 0 0 FFTFFFFFFFFFFF9 1 82 1 14 101 79 12 352 ATOM_ID_
20011 0 
