**ABCDEFGHIJKLMNOPQRSTUVWXYZabcdefghijklmnopqrstuvwxyz**************************
**PARASOLID !"#$%&'()*+,-./:;<=>?@[\]^_`{|}~0123456789**************************
**PART1;
MC=AMD64;
MC_MODEL=AMD64 Family 25 Model 80 Stepping 0, AuthenticAMD;
MC_ID=unknown;
OS=Windows_NT;
OS_RELEASE=unknown;
FRU=Parasolid Version 32.1, build 255,  1- 1-2021;
APPL=SOLIDWORKS 2021-2021085;
SITE=;
USER=unknown;
FORMAT=text;
GUISE=transmit;
KEY=Antenna Disk;
FILE=Antenna Disk.x_t;
DATE=Mon Sep 26 15:44:31 2022;
**PART2;
SCH=SCH_3201255_32001;
USFLD_SIZE=0;
**PART3;
**END_OF_HEADER*****************************************************************
T51 : TRANSMIT FILE created by modeller version 320125523 SCH_3201255_32001_1300
6229 0 12 34 CCCCCCI4 mesh1006 0 I8 polyline1008 0 CCCCCCCDI5 owner1040 0 CCCCCC
I13 boundary_mesh1006 0 I17 boundary_polyline1008 0 CCCA16 index_map_offset0 0 1
 dA9 index_map82 0 A17 node_id_index_map82 0 A20 schema_embedding_map82 0 A5 chi
ld12 0 A14 lowest_node_id0 0 1 dA16 mesh_offset_data206 0 Z1 274 2 3 0 0 0 0 0 0
 1e3 1e-8 0 4 0 1 0 1 1 5 6 7 0 0 0 8 9 0 0 0 0 0 0 0 0 81 255 2 2 253 10 1 11 0
 0 0 0 12 70 11 CI9 list_type0 0 1 uI10 notransmit0 0 1 lCCCDCCDI12 finger_index
0 0 1 dI12 finger_block1012 0 CZ3 0 4 T1 0 0 11 20 1 13 13 13 255 5 31 0 1 0 14
 0 0 15 0 51 255 6 30 0 14 16 0 0 +0 0 -.001 0 0 1 .0975 1 0 0 31 255 7 25 0 17
 18 0 0 +0 0 0 0 0 1 1 0 0 .0975 19 8 CCCCCCCA5 owner12 0 Z8 9 0 1 15 0 19 V0 16
 255 9 5 20 ?21 0 17 18 0 0 1 81 3 20 254 22 9 0 0 0 23 24 0 0 17 255 21 0 25 21
 21 0 26 9 0 0 +16 17 20 23 ?27 9 28 7 0 0 1 31 18 7 0 9 29 7 0 +0 0 -.001 0 0 1
 1 0 0 .0975 31 29 142 0 30 31 18 0 +-.0325 0 -.001 0 0 -1 -1 0 0 .0025 16 30 11
2 32 ?33 34 0 29 0 0 1 31 31 143 0 34 35 29 0 +-.0325 0 0 0 0 -1 -1 0 0 .0025 16
 34 109 36 ?37 38 30 31 0 0 1 31 35 144 0 38 39 31 0 +.0325 0 -.001 0 0 -1 -1 0
 0 .0025 16 38 88 40 ?41 28 34 35 0 0 1 31 39 145 0 28 0 35 0 +.0325 0 0 0 0 -1
 -1 0 0 .0025 16 28 85 42 ?43 17 38 39 0 0 1 81 3 42 259 22 28 0 0 40 0 44 0 0 1
7 43 0 45 43 43 0 46 28 0 0 +15 255 45 65 0 43 47 48 17 46 0 49 46 46 0 43 28 0
 0 -15 49 96 0 46 50 51 14 255 50 91 52 ?0 53 49 5 54 -0 0 0 53 19 15 51 97 0 41
 50 0 17 41 0 51 41 41 0 55 38 0 0 +17 55 0 56 55 55 0 41 38 0 0 -15 56 78 0 55
 57 58 14 57 1 59 ?47 14 56 5 60 -0 0 47 14 19 15 58 71 0 61 57 62 17 61 0 58 61
 61 0 33 30 0 0 -15 62 4 0 26 57 0 17 26 0 62 26 26 0 21 9 0 0 -17 33 0 63 33 33
 0 61 30 0 0 +15 63 121 0 33 53 0 14 53 115 64 ?50 47 65 5 66 -0 0 50 47 19 81 3
 64 268 67 53 68 0 59 69 70 0 0 14 47 18 69 ?53 57 45 5 16 +0 0 53 57 19 15 65 1
20 0 71 53 63 51 66 136 0 53 54 60 0 +-.0325 0 0 0 0 -1 .0025 -1 0 0 13 19 10 0
 0 0 0 0 0 8 14 14 14 27 72 ?57 0 25 5 6 +0 0 57 0 19 81 3 72 274 67 14 73 0 69
 0 74 0 0 15 25 26 0 21 14 75 15 75 28 0 76 14 0 17 76 0 75 76 76 0 27 17 0 0 -1
7 27 0 77 27 27 0 76 17 0 0 +15 77 19 0 27 47 0 80 255 3 67 78 79 9000 0 0 0 0 3
 5 0 0 0 FFFFTFFFFFFFFF1 1 1 81 1 73 273 80 14 81 72 82 0 83 81 3 69 271 67 47 8
2 0 64 72 84 0 0 82 255 6 74 1 -2063241159 30979847 0 983658737 759957729 81 1 8
2 270 80 47 85 69 68 73 86 82 6 84 3 -2063241159 30979847 0 983658737 759957729
 80 1 80 87 88 9000 1 1 1 1 1 1 1 1 0 FFFFTFTFFFFFFF1 81 3 85 269 89 47 90 82 91
 81 92 0 0 81 1 68 267 80 53 91 64 93 82 94 82 1 86 -326434620 81 3 91 266 89 53
 95 68 96 85 97 0 0 81 1 93 264 80 57 96 59 98 68 99 82 1 94 -2096365372 81 3 96
 263 89 57 100 93 101 91 102 0 0 81 3 59 265 67 57 93 0 52 64 103 0 0 81 1 98 26
1 80 50 101 52 0 93 104 82 1 99 -327024444 81 3 101 260 89 50 105 98 0 96 106 0
 0 81 3 52 262 67 50 98 0 0 59 107 0 0 82 1 104 -2100363068 82 6 107 5 -20632411
59 30979847 0 983658737 759957729 80 3 89 108 109 9000 0 0 0 0 3 6 0 0 0 FFTTTTT
TFFFFTT1 1 1 81 1 105 225 110 50 0 101 95 0 111 82 3 106 738924 4 0 80 1 110 0 1
12 8001 0 0 0 0 3 5 0 0 0 FFFFTFTFFFFFFF2 81 1 95 224 110 53 0 91 90 105 113 83
 255 3 111 .0196078431372549 .0196078431372549 .0196078431372549 81 1 90 223 110
 47 0 85 100 95 114 83 3 113 .0196078431372549 .0196078431372549 .01960784313725
49 81 1 100 222 110 57 0 96 115 90 116 83 3 114 .0196078431372549 .0196078431372
549 .0196078431372549 81 1 115 221 110 14 0 81 0 100 117 83 3 116 .0196078431372
549 .0196078431372549 .0196078431372549 81 3 81 272 89 14 115 73 85 0 118 0 0 83
 3 117 .0196078431372549 .0196078431372549 .0196078431372549 82 3 118 738924 4 0
 79 255 15 112 SDL/TYSA_COLOUR79 12 109 GENERIC_PERM82 6 103 2 -2063241159 30979
847 0 983658737 759957729 82 3 102 738924 2 0 82 3 97 738924 4 0 82 3 92 738924
 3 0 79 14 88 SWEntUnchanged82 1 83 1695744187 79 18 79 DOWNSTREAM_FACE_ID51 54
 139 0 50 0 66 0 +.0325 0 0 0 0 -1 .0025 -1 0 0 50 255 60 3 0 57 66 16 0 +0 0 -.
001 0 0 1 1 0 0 50 16 24 0 47 60 6 0 +0 0 0 0 0 1 1 0 0 17 71 0 65 71 71 0 37 34
 0 0 -17 37 0 48 37 37 0 71 34 0 0 +15 48 58 0 37 47 77 82 6 70 4 -2063241159 30
979847 0 983658737 759957729 80 3 22 67 119 9000 0 0 0 0 3 5 0 0 0 FFFFFFTFFFFFF
F1 1 1 81 3 40 258 22 38 0 0 36 42 120 0 0 82 6 44 8 -2063241159 30979847 0 9836
58737 759957729 81 3 36 257 22 34 0 0 32 40 121 0 0 82 6 120 9 -2063241159 30979
847 0 983658737 759957729 81 3 32 256 22 30 0 0 23 36 122 0 0 82 6 121 10 -20632
41159 30979847 0 983658737 759957729 81 3 23 255 22 17 0 0 20 32 123 0 0 82 6 12
2 11 -2063241159 30979847 0 983658737 759957729 82 6 123 7 -2063241159 30979847
 0 983658737 759957729 79 18 119 DOWNSTREAM_EDGE_ID82 6 24 6 -2063241159 3097984
7 0 983658737 759957729 19 15 32 0 1 0 8 5 S0 74 4 CI16 index_map_offset0 0 1 dC
CZ20 13 11 0 0 81 124 125 73 126 127 72 42 11 105 2 0 0 0 0 0 0 0 0 0 81 2 124 4
2 128 1 0 125 0 0 0 129 81 2 125 43 130 1 124 126 0 0 0 131 81 2 126 167 132 1 1
25 127 0 0 133 0 81 2 127 173 134 1 126 11 0 0 0 135 81 2 11 217 136 1 127 2 0 0
 0 0 80 2 136 137 138 9000 0 0 0 0 3 5 0 0 0 FFTFFFFFFFFFFF9 1 79 16 138 BODY_RE
CIPE_200180 2 134 139 140 9000 0 0 0 0 3 5 0 0 0 FFTFFFFFFFFFFF9 1 82 1 135 1 79
 24 140 BODY_IN_LIGHTWEIGHT_PERM80 2 132 141 142 8004 0 0 0 0 3 5 0 0 0 FFTFFFFF
FFFFFF2 3 83 1 133 7870 79 16 142 SDL/TYSA_DENSITY80 2 130 143 144 9000 0 0 0 0
 3 5 0 0 0 FFTFFFFFFFFFFT9 1 82 1 131 157 79 19 144 ENT_TIME_STAMP_200180 2 128
 145 146 9000 0 0 0 0 3 5 0 0 0 FFTFFFFFFFFFFF9 1 82 1 129 63 79 30 146 LAST_BOD
Y_MODIFYING_FEATURE_ID80 2 10 147 148 9000 0 0 0 0 3 5 0 0 0 FFTFFFFFFFFFFF9 1 8
2 1 12 102 79 12 148 ATOM_ID_20011 0 
